<?xml version="1.0" encoding="utf-8"?>
<!-- Generator: Adobe Illustrator 22.1.0, SVG Export Plug-In . SVG Version: 6.00 Build 0)  -->
<svg version="1.1" id="Layer_1" xmlns="http://www.w3.org/2000/svg" xmlns:xlink="http://www.w3.org/1999/xlink" x="0px" y="0px"
	 viewBox="0 0 360 360" style="enable-background:new 0 0 360 360;" xml:space="preserve">
<style type="text/css">
	.st0{fill:#804540;}
	.st1{fill:#FFFFFF;}
</style>
<circle class="st0" cx="180" cy="180" r="180"/>
<path class="st1" d="M257.5,178c16.5-22.5,17.1-40.4,10.3-52.5c-4.5-8-16.6-20.8-47.7-17.2C211.3,87.3,197.9,73,180,73
	s-31.3,14.3-40.2,35.3c-31.1-3.6-43.2,9.2-47.7,17.2c-6.7,12.1-6.1,30,10.3,52.5c-16.4,22.5-17.1,40.4-10.3,52.5
	c12,21.4,41.7,17.8,47.7,17.2c8.8,21,22.2,35.3,40.2,35.3s31.3-14.4,40.2-35.3c6,0.7,35.7,4.3,47.7-17.2
	C274.6,218.4,274,200.5,257.5,178L257.5,178z M114.1,217.4c-1.7-3-0.1-10.2,6.1-19.8c2.9,2.7,5.9,5.2,9,7.9
	c0.7,5.6,1.7,11.1,2.8,16.5C121.9,222.3,115.6,220.1,114.1,217.4L114.1,217.4z M129.2,150.5c-3.2,2.5-6.1,5.2-9,7.9
	c-6.2-9.6-7.8-16.9-6.1-19.8c1.4-2.5,6.7-4.7,15.6-4.7c0.7,0,1.6,0.1,2.4,0.2C130.8,139.5,129.9,145,129.2,150.5L129.2,150.5z
	 M180,99.2c3.8,0,9.1,5.5,13.9,15.3c-4.5,1.5-9.2,3.3-13.9,5.2c-4.7-2-9.3-3.8-13.9-5.2C170.9,104.8,176.2,99.2,180,99.2z
	 M180,256.8c-3.8,0-9.1-5.5-13.9-15.3c4.5-1.5,9.2-3.3,13.9-5.2c4.7,2,9.3,3.8,13.9,5.2C189.1,251.2,183.8,256.8,180,256.8z
	 M205.6,192.3c-10.9,7.8-18.9,12-25.6,15.4c-6.7-3.3-14.7-7.5-25.6-15.4c-0.8-11.4-0.8-17.1,0-28.4c10.9-7.8,18.9-12,25.6-15.4
	c6.7,3.3,14.7,7.5,25.6,15.4C206.4,175.2,206.4,180.8,205.6,192.3z M245.9,217.4c-1.5,2.7-7.8,4.8-17.8,4.5
	c1.1-5.3,2.1-10.8,2.8-16.5c3.2-2.5,6.1-5.2,9-7.9C246,207.2,247.6,214.4,245.9,217.4L245.9,217.4z M239.8,158.4
	c-2.9-2.7-5.9-5.2-9-7.9c-0.7-5.5-1.7-11-2.8-16.5c0.8,0,1.7-0.2,2.4-0.2c8.8,0,14.2,2.2,15.6,4.7
	C247.6,141.6,246,148.8,239.8,158.4z M180,164.9c-7.3,0-13.1,5.9-13.1,13.1s5.9,13.1,13.1,13.1s13.1-5.9,13.1-13.1
	S187.3,164.9,180,164.9z"/>
</svg>
