<?xml version="1.0" encoding="utf-8"?>
<!-- Generator: Adobe Illustrator 22.1.0, SVG Export Plug-In . SVG Version: 6.00 Build 0)  -->
<svg version="1.1" id="Layer_1" xmlns="http://www.w3.org/2000/svg" xmlns:xlink="http://www.w3.org/1999/xlink" x="0px" y="0px"
	 viewBox="0 0 360 360" style="enable-background:new 0 0 360 360;" xml:space="preserve">
<style type="text/css">
	.st0{fill:#804540;}
	.st1{fill:#FFFFFF;}
</style>
<circle class="st0" cx="180" cy="180" r="180"/>
<path class="st1" d="M262.5,264.2h-7.8V86c0-5.1-4.2-9.3-9.3-9.3H114.1c-5.1,0-9.3,4.2-9.3,9.3v178.2h-7.8c-2.6,0-4.7,2.1-4.7,4.7
	v7.8h175.1v-7.8C267.2,266.3,265.1,264.2,262.5,264.2z M142.2,106.3c0-2.6,2.1-4.7,4.7-4.7h15.6c2.6,0,4.7,2.1,4.7,4.7v15.6
	c0,2.6-2.1,4.7-4.7,4.7h-15.6c-2.6,0-4.7-2.1-4.7-4.7V106.3z M142.2,143.8c0-2.6,2.1-4.7,4.7-4.7h15.6c2.6,0,4.7,2.1,4.7,4.7v15.6
	c0,2.6-2.1,4.7-4.7,4.7h-15.6c-2.6,0-4.7-2.1-4.7-4.7V143.8z M162.5,201.7h-15.6c-2.6,0-4.7-2.1-4.7-4.7v-15.6
	c0-2.6,2.1-4.7,4.7-4.7h15.6c2.6,0,4.7,2.1,4.7,4.7V197C167.1,199.6,165,201.7,162.5,201.7z M192.2,264.2h-25v-32.9
	c0-2.6,2.1-4.7,4.7-4.7h15.6c2.6,0,4.7,2.1,4.7,4.7L192.2,264.2L192.2,264.2z M217.2,197c0,2.6-2.1,4.7-4.7,4.7h-15.6
	c-2.6,0-4.7-2.1-4.7-4.7v-15.6c0-2.6,2.1-4.7,4.7-4.7h15.6c2.6,0,4.7,2.1,4.7,4.7V197z M217.2,159.5c0,2.6-2.1,4.7-4.7,4.7h-15.6
	c-2.6,0-4.7-2.1-4.7-4.7v-15.6c0-2.6,2.1-4.7,4.7-4.7h15.6c2.6,0,4.7,2.1,4.7,4.7V159.5z M217.2,121.9c0,2.6-2.1,4.7-4.7,4.7h-15.6
	c-2.6,0-4.7-2.1-4.7-4.7v-15.6c0-2.6,2.1-4.7,4.7-4.7h15.6c2.6,0,4.7,2.1,4.7,4.7V121.9z"/>
</svg>
