<?xml version="1.0" encoding="utf-8"?>
<!-- Generator: Adobe Illustrator 22.1.0, SVG Export Plug-In . SVG Version: 6.00 Build 0)  -->
<svg version="1.1" id="Layer_1" xmlns="http://www.w3.org/2000/svg" xmlns:xlink="http://www.w3.org/1999/xlink" x="0px" y="0px"
	 viewBox="0 0 360 360" style="enable-background:new 0 0 360 360;" xml:space="preserve">
<style type="text/css">
	.st0{fill:#804540;}
	.st1{fill:#FFFFFF;}
</style>
<circle class="st0" cx="180" cy="180" r="180"/>
<path class="st1" d="M293.2,139.5l-101.6-31.2c-5.5-1.7-11.5-1.7-17,0L72.8,139.5c-8.6,2.6-8.6,14,0,16.6l17.7,5.4
	c-3.9,4.8-6.3,10.7-6.5,17.1c-3.5,2-6,5.7-6,10c0,3.9,2,7.2,5.1,9.3l-9.3,41.9c-0.8,3.6,2,7.1,5.7,7.1h20.4c3.7,0,6.5-3.5,5.7-7.1
	L96.3,198c3-2.1,5.1-5.4,5.1-9.3c0-4.2-2.4-7.7-5.7-9.8c0.3-5.5,3.1-10.3,7.5-13.4l71.2,21.9c3.3,1,9.7,2.3,17,0l101.7-31.2
	C301.7,153.5,301.7,142.2,293.2,139.5L293.2,139.5z M195,198.5c-10.4,3.2-19.2,1.4-23.9,0l-52.8-16.2l-5.2,41.3
	c0,12.9,31.3,23.3,70,23.3s70-10.4,70-23.3l-5.2-41.4L195,198.5z"/>
</svg>
