<?xml version="1.0" encoding="utf-8"?>
<!-- Generator: Adobe Illustrator 22.1.0, SVG Export Plug-In . SVG Version: 6.00 Build 0)  -->
<svg version="1.1" id="Layer_1" xmlns="http://www.w3.org/2000/svg" xmlns:xlink="http://www.w3.org/1999/xlink" x="0px" y="0px"
	 viewBox="0 0 360 360" style="enable-background:new 0 0 360 360;" xml:space="preserve">
<style type="text/css">
	.st0{fill:#804540;}
	.st1{fill:#FFFFFF;}
</style>
<circle class="st0" cx="180" cy="180" r="180"/>
<path class="st1" d="M144.8,255.5c0,2.5,0.7,4.9,2.1,6.9l6.7,10c2.3,3.5,6.2,5.6,10.4,5.6h24.1c4.2,0,8.1-2.1,10.4-5.6l6.7-10
	c1.4-2,2.1-4.5,2.1-6.9l0-15h-62.5C144.8,240.5,144.8,255.5,144.8,255.5z M107.3,146.8c0,17.3,6.4,33.1,17,45.2
	c6.5,7.4,16.5,22.7,20.4,35.7c0,0.1,0,0.2,0,0.3h62.6c0-0.1,0-0.2,0-0.3c3.8-13,13.9-28.4,20.4-35.7c10.6-12.1,17-27.9,17-45.2
	c0-38-30.9-68.9-69-68.7C135.9,78.1,107.3,110.4,107.3,146.8z M176,115.5c-17.2,0-31.2,14-31.2,31.2c0,3.5-2.8,6.2-6.2,6.2
	s-6.2-2.8-6.2-6.2c0-24.1,19.6-43.7,43.7-43.7c3.5,0,6.2,2.8,6.2,6.2S179.5,115.5,176,115.5z"/>
</svg>
