<?xml version="1.0" encoding="utf-8"?>
<!-- Generator: Adobe Illustrator 22.1.0, SVG Export Plug-In . SVG Version: 6.00 Build 0)  -->
<svg version="1.1" id="Layer_1" xmlns="http://www.w3.org/2000/svg" xmlns:xlink="http://www.w3.org/1999/xlink" x="0px" y="0px"
	 viewBox="0 0 360 360" style="enable-background:new 0 0 360 360;" xml:space="preserve">
<style type="text/css">
	.st0{fill:#804540;}
	.st1{fill:#FFFFFF;}
</style>
<circle class="st0" cx="180" cy="180" r="180"/>
<path class="st1" d="M180,176c27.6,0,50-22.4,50-50s-22.4-50-50-50s-50,22.4-50,50S152.4,176,180,176z M215,188.5h-6.5
	c-8.6,4-18.4,6.3-28.4,6.3c-10.1,0-19.7-2.3-28.4-6.3H145c-29,0-52.5,23.5-52.5,52.5v16.3c0,10.4,8.4,18.7,18.7,18.7h137.4
	c10.4,0,18.7-8.4,18.7-18.7v-16.3C267.4,212,244,188.5,215,188.5z"/>
</svg>
