<?xml version="1.0" encoding="utf-8"?>
<!-- Generator: Adobe Illustrator 22.1.0, SVG Export Plug-In . SVG Version: 6.00 Build 0)  -->
<svg version="1.1" id="Layer_1" xmlns="http://www.w3.org/2000/svg" xmlns:xlink="http://www.w3.org/1999/xlink" x="0px" y="0px"
	 width="360px" height="360px" viewBox="0 0 360 360" style="enable-background:new 0 0 360 360;" xml:space="preserve">
<style type="text/css">
	.st0{fill:#846E28;}
	.st1{fill:#FFFFFF;}
	.st2{fill:none;stroke:#BDBEB9;stroke-width:14;stroke-miterlimit:10;}
	.st3{fill:#2E4D4D;}
	.st4{fill:#1C5246;}
</style>
<circle class="st0" cx="180" cy="180" r="180"/>
<path class="st1" d="M240.7,143.4h-47.2l14.2-53.1c1.7-6.2-3-12.4-9.5-12.4h-55.7c-4.9,0-9.1,3.6-9.7,8.5l-13.1,98.3
	c-0.8,5.9,3.8,11.1,9.7,11.1H178l-18.9,79.6c-1.5,6.2,3.3,12.1,9.6,12.1c3.4,0,6.7-1.8,8.5-4.9l72-124.4
	C253,151.6,248.2,143.4,240.7,143.4L240.7,143.4z"/>
<circle class="st2" cx="180" cy="-207" r="180"/>
<path class="st3" d="M240.7-243.6h-47.2l14.2-53.1c1.7-6.2-3-12.4-9.5-12.4h-55.7c-4.9,0-9.1,3.6-9.7,8.5l-13.1,98.3
	c-0.8,5.9,3.8,11.1,9.7,11.1H178l-18.9,79.6c-1.5,6.2,3.3,12.1,9.6,12.1c3.4,0,6.7-1.8,8.5-4.9l72-124.4
	C253-235.4,248.2-243.6,240.7-243.6L240.7-243.6z"/>
<circle class="st2" cx="180" cy="-594" r="180"/>
<path class="st4" d="M240.7-630.6h-47.2l14.2-53.1c1.7-6.2-3-12.4-9.5-12.4h-55.7c-4.9,0-9.1,3.6-9.7,8.5l-13.1,98.3
	c-0.8,5.9,3.8,11.1,9.7,11.1H178l-18.9,79.6c-1.5,6.2,3.3,12.1,9.6,12.1c3.4,0,6.7-1.8,8.5-4.9l72-124.4
	C253-622.4,248.2-630.6,240.7-630.6L240.7-630.6z"/>
<rect x="-243.3" y="115.8" style="fill:none;" width="190.3" height="183"/>
<text transform="matrix(1 0 0 1 -243.2822 127.8647)"><tspan x="0" y="0" style="font-family:'MyriadPro-Regular'; font-size:17px;">For website, using PRL </tspan><tspan x="0" y="20.4" style="font-family:'MyriadPro-Regular'; font-size:17px;">complementary color</tspan></text>
<rect x="-243.3" y="-321.2" style="fill:none;" width="190.3" height="183"/>
<text transform="matrix(1 0 0 1 -243.2822 -309.1353)"><tspan x="0" y="0" style="font-family:'MyriadPro-Regular'; font-size:17px;">For brand essence posters, </tspan><tspan x="0" y="20.4" style="font-family:'MyriadPro-Regular'; font-size:17px;">using PRL green</tspan></text>
<rect x="-259.8" y="-685.5" style="fill:none;" width="190.3" height="183"/>
<text transform="matrix(1 0 0 1 -259.7814 -673.4395)"><tspan x="0" y="0" style="font-family:'MyriadPro-Regular'; font-size:17px;">For brand essence posters, </tspan><tspan x="0" y="20.4" style="font-family:'MyriadPro-Regular'; font-size:17px;">using lighter green color </tspan><tspan x="0" y="40.8" style="font-family:'MyriadPro-Regular'; font-size:17px;">for print</tspan></text>
</svg>
