<?xml version="1.0" encoding="utf-8"?>
<!-- Generator: Adobe Illustrator 22.1.0, SVG Export Plug-In . SVG Version: 6.00 Build 0)  -->
<svg version="1.1" id="Layer_1" xmlns="http://www.w3.org/2000/svg" xmlns:xlink="http://www.w3.org/1999/xlink" x="0px" y="0px"
	 width="360px" height="360px" viewBox="0 0 360 360" style="enable-background:new 0 0 360 360;" xml:space="preserve">
<style type="text/css">
	.st0{fill:#846E28;}
	.st1{fill:#FFFFFF;}
	.st2{fill:none;stroke:#BDBEB9;stroke-width:14;stroke-miterlimit:10;}
	.st3{fill:#2E4D4D;}
	.st4{fill:#1C5246;}
	.st5{fill:none;stroke:#CFD1D2;stroke-width:14;stroke-miterlimit:10;}
	.st6{fill:none;}
	.st7{fill:none;stroke:#E82100;stroke-width:14;stroke-miterlimit:10;}
</style>
<circle class="st0" cx="180" cy="180" r="180"/>
<path class="st1" d="M266.8,91.4c-1.9-4.3-7.4-4.5-9.8-0.4c-10.7,18.7-29.9,30.3-51.8,30.3h-27.7c-36.6,0-66.4,29.7-66.4,66.4
	c0,2.4,0.3,4.8,0.5,7.1c22.1-15.7,54-29.2,99.1-29.2c3,0,5.6,2.5,5.6,5.6c0,3-2.5,5.6-5.6,5.6c-86.9,0-123.8,53.3-131.9,73.3
	c-2.3,5.7,0.4,12,6,14.4c5.7,2.4,12.1-0.4,14.4-6c0.5-1.2,7.3-16.5,24.9-31.3c11.2,15.2,32.5,29.6,60.4,26.7
	c54.2-4,92.5-52.6,92.5-112.2C277,124,273.3,106.1,266.8,91.4L266.8,91.4z"/>
<circle class="st2" cx="190.1" cy="-234" r="180"/>
<path class="st3" d="M277-322.6c-1.9-4.3-7.4-4.5-9.8-0.4c-10.7,18.7-29.9,30.3-51.8,30.3h-27.7c-36.6,0-66.4,29.7-66.4,66.4
	c0,2.4,0.3,4.8,0.5,7.1c22.1-15.7,54-29.2,99.1-29.2c3,0,5.6,2.5,5.6,5.6c0,3-2.5,5.6-5.6,5.6c-86.9,0-123.8,53.3-131.9,73.3
	c-2.3,5.7,0.4,12,6,14.4c5.7,2.4,12.1-0.4,14.4-6c0.5-1.2,7.3-16.5,24.9-31.3c11.2,15.2,32.5,29.6,60.4,26.7
	c54.2-4,92.5-52.6,92.5-112.2C287.1-290,283.5-307.9,277-322.6L277-322.6z"/>
<circle class="st2" cx="190.1" cy="-648" r="180"/>
<path class="st4" d="M277-736.6c-1.9-4.3-7.4-4.5-9.8-0.4c-10.7,18.7-29.9,30.3-51.8,30.3h-27.7c-36.6,0-66.4,29.7-66.4,66.4
	c0,2.4,0.3,4.8,0.5,7.1c22.1-15.7,54-29.2,99.1-29.2c3,0,5.6,2.5,5.6,5.6c0,3-2.5,5.6-5.6,5.6c-86.9,0-123.8,53.3-131.9,73.3
	c-2.3,5.7,0.4,12,6,14.4c5.7,2.4,12.1-0.4,14.4-6c0.5-1.2,7.3-16.5,24.9-31.3c11.2,15.2,32.5,29.6,60.4,26.7
	c54.2-4,92.5-52.6,92.5-112.2C287.1-704,283.5-721.9,277-736.6L277-736.6z"/>
<circle class="st5" cx="880.5" cy="-235.3" r="180"/>
<path class="st3" d="M967.3-323.9c-1.9-4.3-7.4-4.5-9.8-0.4c-10.7,18.7-29.9,30.3-51.8,30.3H878c-36.6,0-66.4,29.7-66.4,66.4
	c0,2.4,0.3,4.8,0.5,7.1c22.1-15.7,54-29.2,99.1-29.2c3,0,5.6,2.5,5.6,5.6c0,3-2.5,5.6-5.6,5.6c-86.9,0-123.8,53.3-131.9,73.3
	c-2.3,5.7,0.4,12,6,14.4c5.7,2.4,12.1-0.4,14.4-6c0.5-1.2,7.3-16.5,24.9-31.3c11.2,15.2,32.5,29.6,60.4,26.7
	c54.2-4,92.5-52.6,92.5-112.2C977.5-291.3,973.8-309.2,967.3-323.9L967.3-323.9z"/>
<rect x="-243.3" y="115.8" class="st6" width="190.3" height="183"/>
<text transform="matrix(1 0 0 1 -243.2822 127.8647)" style="font-family:'MyriadPro-Regular'; font-size:17px;">For website, using PRL </text>
<text transform="matrix(1 0 0 1 -243.2822 148.2647)" style="font-family:'MyriadPro-Regular'; font-size:17px;">complementary color</text>
<rect x="-243.3" y="-321.2" class="st6" width="190.3" height="183"/>
<text transform="matrix(1 0 0 1 -243.2822 -309.1353)" style="font-family:'MyriadPro-Regular'; font-size:17px;">For brand essence posters, </text>
<text transform="matrix(1 0 0 1 -243.2822 -288.7353)" style="font-family:'MyriadPro-Regular'; font-size:17px;">using PRL green</text>
<rect x="-259.8" y="-685.5" class="st6" width="190.3" height="183"/>
<text transform="matrix(1 0 0 1 -259.7814 -673.4395)" style="font-family:'MyriadPro-Regular'; font-size:17px;">For brand essence posters, </text>
<text transform="matrix(1 0 0 1 -259.7814 -653.0396)" style="font-family:'MyriadPro-Regular'; font-size:17px;">using lighter green color </text>
<text transform="matrix(1 0 0 1 -259.7814 -632.6395)" style="font-family:'MyriadPro-Regular'; font-size:17px;">for print</text>
<line class="st7" x1="659.1" y1="-494.9" x2="1139.7" y2="-21.4"/>
<line class="st7" x1="708.6" y1="-7.4" x2="1109" y2="-496.4"/>
</svg>
