<?xml version="1.0" encoding="utf-8"?>
<!-- Generator: Adobe Illustrator 22.1.0, SVG Export Plug-In . SVG Version: 6.00 Build 0)  -->
<svg version="1.1" id="Layer_1" xmlns="http://www.w3.org/2000/svg" xmlns:xlink="http://www.w3.org/1999/xlink" x="0px" y="0px"
	 width="360px" height="360px" viewBox="0 0 360 360" style="enable-background:new 0 0 360 360;" xml:space="preserve">
<style type="text/css">
	.st0{fill:#846E28;}
	.st1{fill:#FFFFFF;}
	.st2{fill:none;stroke:#BDBEB9;stroke-width:14;stroke-miterlimit:10;}
	.st3{fill:#2E4D4D;}
	.st4{fill:#1C5246;}
	.st5{fill:none;}
</style>
<circle class="st0" cx="180" cy="180" r="180"/>
<path class="st1" d="M204.1,209.6h-45.8c-6.3,0-11.4,5.1-11.4,11.5v45.8c0,6.3,5.1,11.5,11.4,11.5h45.8c6.3,0,11.5-5.1,11.5-11.5
	v-45.8C215.6,214.7,210.4,209.6,204.1,209.6L204.1,209.6z M135.4,106.6c0-6.3-5.1-11.4-11.4-11.4H78.2c-6.3,0-11.4,5.1-11.4,11.4
	v45.8c0,6.3,5.1,11.4,11.4,11.4h34.3l26.2,45.8c3.9-6.8,11.3-11.4,19.7-11.4h0.1l-23-40.2v-17h80.2v-23h-80.2v-11.4H135.4z
	 M284.2,95.1h-45.8c-6.3,0-11.4,5.1-11.4,11.4v45.8c0,6.3,5.1,11.4,11.4,11.4h45.8c6.3,0,11.5-5.1,11.5-11.4v-45.8
	C295.7,100.2,290.6,95.1,284.2,95.1z"/>
<circle class="st2" cx="181.2" cy="-222" r="180"/>
<path class="st3" d="M205.4-192.4h-45.8c-6.3,0-11.4,5.1-11.4,11.5v45.8c0,6.3,5.1,11.5,11.4,11.5h45.8c6.3,0,11.5-5.1,11.5-11.5
	v-45.8C216.9-187.3,211.7-192.4,205.4-192.4L205.4-192.4z M136.7-295.4c0-6.3-5.1-11.4-11.4-11.4H79.5c-6.3,0-11.4,5.1-11.4,11.4
	v45.8c0,6.3,5.1,11.4,11.4,11.4h34.3l26.2,45.8c3.9-6.8,11.3-11.4,19.7-11.4h0.1l-23-40.2v-17H217v-23h-80.2v-11.4H136.7z
	 M285.5-306.9h-45.8c-6.3,0-11.4,5.1-11.4,11.4v45.8c0,6.3,5.1,11.4,11.4,11.4h45.8c6.3,0,11.5-5.1,11.5-11.4v-45.8
	C297-301.8,291.9-306.9,285.5-306.9z"/>
<circle class="st2" cx="180" cy="-653" r="180"/>
<path class="st4" d="M204.2-623.4h-45.8c-6.3,0-11.4,5.1-11.4,11.5v45.8c0,6.3,5.1,11.5,11.4,11.5h45.8c6.3,0,11.5-5.1,11.5-11.5
	v-45.8C215.7-618.3,210.5-623.4,204.2-623.4L204.2-623.4z M135.5-726.4c0-6.3-5.1-11.4-11.4-11.4H78.3c-6.3,0-11.4,5.1-11.4,11.4
	v45.8c0,6.3,5.1,11.4,11.4,11.4h34.3l26.2,45.8c3.9-6.8,11.3-11.4,19.7-11.4h0.1l-23-40.2v-17h80.2v-23h-80.2v-11.4H135.5z
	 M284.3-737.9h-45.8c-6.3,0-11.4,5.1-11.4,11.4v45.8c0,6.3,5.1,11.4,11.4,11.4h45.8c6.3,0,11.5-5.1,11.5-11.4v-45.8
	C295.8-732.8,290.7-737.9,284.3-737.9z"/>
<rect x="-243.3" y="115.8" class="st5" width="190.3" height="183"/>
<text transform="matrix(1 0 0 1 -243.2822 127.8647)" style="font-family:'MyriadPro-Regular'; font-size:17px;">For website, using PRL </text>
<text transform="matrix(1 0 0 1 -243.2822 148.2647)" style="font-family:'MyriadPro-Regular'; font-size:17px;">complementary color</text>
<rect x="-243.3" y="-321.2" class="st5" width="190.3" height="183"/>
<text transform="matrix(1 0 0 1 -243.2822 -309.1353)" style="font-family:'MyriadPro-Regular'; font-size:17px;">For brand essence posters, </text>
<text transform="matrix(1 0 0 1 -243.2822 -288.7353)" style="font-family:'MyriadPro-Regular'; font-size:17px;">using PRL green</text>
<rect x="-259.8" y="-685.5" class="st5" width="190.3" height="183"/>
<text transform="matrix(1 0 0 1 -259.7814 -673.4395)" style="font-family:'MyriadPro-Regular'; font-size:17px;">For brand essence posters, </text>
<text transform="matrix(1 0 0 1 -259.7814 -653.0396)" style="font-family:'MyriadPro-Regular'; font-size:17px;">using lighter green color </text>
<text transform="matrix(1 0 0 1 -259.7814 -632.6395)" style="font-family:'MyriadPro-Regular'; font-size:17px;">for print</text>
</svg>
