<?xml version="1.0" encoding="utf-8"?>
<!-- Generator: Adobe Illustrator 22.1.0, SVG Export Plug-In . SVG Version: 6.00 Build 0)  -->
<svg version="1.1" id="Layer_1" xmlns="http://www.w3.org/2000/svg" xmlns:xlink="http://www.w3.org/1999/xlink" x="0px" y="0px"
	 width="360px" height="360px" viewBox="0 0 360 360" style="enable-background:new 0 0 360 360;" xml:space="preserve">
<style type="text/css">
	.st0{fill:#846E2B;}
	.st1{fill:#FFFFFF;}
	.st2{fill:none;stroke:#BDBEB9;stroke-width:14;stroke-miterlimit:10;}
	.st3{fill:#2E4D4D;}
	.st4{fill:#1C5246;}
</style>
<circle class="st0" cx="180" cy="180" r="180"/>
<path class="st1" d="M220.7,201.9l-38.3,38.3L144,201.9c-28.7,1.2-51.7,24.8-51.7,53.8v3.9c0,10.6,8.6,19.3,19.3,19.3H253
	c10.6,0,19.3-8.6,19.3-19.3v-3.9C272.3,226.7,249.4,203.2,220.7,201.9L220.7,201.9z M97.8,105.2l2.6,0.6v23.5
	c-2.8,1.7-4.8,4.6-4.8,8.2c0,3.4,1.8,6.2,4.5,7.9l-6.3,25c-0.7,2.8,0.8,5.6,3.1,5.6h16.8c2.2,0,3.7-2.9,3.1-5.6l-6.3-25
	c2.6-1.7,4.5-4.5,4.5-7.9c0-3.5-2-6.5-4.8-8.2v-21.1l26.5,6.4c-3.5,6.9-5.6,14.6-5.6,22.9c0,28.4,23,51.4,51.4,51.4
	s51.4-23,51.4-51.4c0-8.3-2.1-16-5.6-22.9l38.7-9.3c7.3-1.8,7.3-10.9,0-12.7l-76.5-18.5c-5.2-1.2-10.7-1.2-16,0L97.8,92.5
	C90.5,94.3,90.5,103.4,97.8,105.2L97.8,105.2z"/>
<circle class="st2" cx="180" cy="-222" r="180"/>
<path class="st3" d="M220.7-200.1l-38.3,38.3L144-200.1c-28.7,1.2-51.7,24.8-51.7,53.8v3.9c0,10.6,8.6,19.3,19.3,19.3H253
	c10.6,0,19.3-8.6,19.3-19.3v-3.9C272.3-175.3,249.4-198.8,220.7-200.1L220.7-200.1z M97.8-296.8l2.6,0.6v23.5
	c-2.8,1.7-4.8,4.6-4.8,8.2c0,3.4,1.8,6.2,4.5,7.9l-6.3,25c-0.7,2.8,0.8,5.6,3.1,5.6h16.8c2.2,0,3.7-2.9,3.1-5.6l-6.3-25
	c2.6-1.7,4.5-4.5,4.5-7.9c0-3.5-2-6.5-4.8-8.2v-21.1l26.5,6.4c-3.5,6.9-5.6,14.6-5.6,22.9c0,28.4,23,51.4,51.4,51.4
	s51.4-23,51.4-51.4c0-8.3-2.1-16-5.6-22.9l38.7-9.3c7.3-1.8,7.3-10.9,0-12.7l-76.5-18.5c-5.2-1.2-10.7-1.2-16,0l-76.7,18.4
	C90.5-307.7,90.5-298.6,97.8-296.8L97.8-296.8z"/>
<circle class="st2" cx="172" cy="-631.9" r="180"/>
<path class="st4" d="M212.7-610l-38.3,38.3L136-610c-28.7,1.2-51.7,24.8-51.7,53.8v3.9c0,10.6,8.6,19.3,19.3,19.3H245
	c10.6,0,19.3-8.6,19.3-19.3v-3.9C264.3-585.2,241.4-608.7,212.7-610L212.7-610z M89.8-706.7l2.6,0.6v23.5c-2.8,1.7-4.8,4.6-4.8,8.2
	c0,3.4,1.8,6.2,4.5,7.9l-6.3,25c-0.7,2.8,0.8,5.6,3.1,5.6h16.8c2.2,0,3.7-2.9,3.1-5.6l-6.3-25c2.6-1.7,4.5-4.5,4.5-7.9
	c0-3.5-2-6.5-4.8-8.2v-21.1l26.5,6.4c-3.5,6.9-5.6,14.6-5.6,22.9c0,28.4,23,51.4,51.4,51.4s51.4-23,51.4-51.4c0-8.3-2.1-16-5.6-22.9
	l38.7-9.3c7.3-1.8,7.3-10.9,0-12.7l-76.5-18.5c-5.2-1.2-10.7-1.2-16,0l-76.7,18.4C82.5-717.6,82.5-708.5,89.8-706.7L89.8-706.7z"/>
<rect x="-243.3" y="115.8" style="fill:none;" width="190.3" height="183"/>
<text transform="matrix(1 0 0 1 -243.2822 127.8647)"><tspan x="0" y="0" style="font-family:'MyriadPro-Regular'; font-size:17px;">For website, using PRL </tspan><tspan x="0" y="20.4" style="font-family:'MyriadPro-Regular'; font-size:17px;">complementary color</tspan></text>
<rect x="-243.3" y="-321.2" style="fill:none;" width="190.3" height="183"/>
<text transform="matrix(1 0 0 1 -243.2822 -309.1353)"><tspan x="0" y="0" style="font-family:'MyriadPro-Regular'; font-size:17px;">For brand essence posters, </tspan><tspan x="0" y="20.4" style="font-family:'MyriadPro-Regular'; font-size:17px;">using PRL green</tspan></text>
<rect x="-259.8" y="-685.5" style="fill:none;" width="190.3" height="183"/>
<text transform="matrix(1 0 0 1 -259.7814 -673.4395)"><tspan x="0" y="0" style="font-family:'MyriadPro-Regular'; font-size:17px;">For brand essence posters, </tspan><tspan x="0" y="20.4" style="font-family:'MyriadPro-Regular'; font-size:17px;">using lighter green color </tspan><tspan x="0" y="40.8" style="font-family:'MyriadPro-Regular'; font-size:17px;">for print</tspan></text>
</svg>
