<?xml version="1.0" encoding="utf-8"?>
<!-- Generator: Adobe Illustrator 22.1.0, SVG Export Plug-In . SVG Version: 6.00 Build 0)  -->
<svg version="1.1" id="Layer_1" xmlns="http://www.w3.org/2000/svg" xmlns:xlink="http://www.w3.org/1999/xlink" x="0px" y="0px"
	 width="360px" height="360px" viewBox="0 0 360 360" style="enable-background:new 0 0 360 360;" xml:space="preserve">
<style type="text/css">
	.st0{fill:#846E28;}
	.st1{fill:#FFFFFF;}
	.st2{fill:none;stroke:#BDBEB9;stroke-width:14;stroke-miterlimit:10;}
	.st3{fill:#2E4D4D;}
	.st4{fill:#1C5246;}
	.st5{fill:none;}
</style>
<circle class="st0" cx="180" cy="180" r="180"/>
<path class="st1" d="M99.3,165c12.9,0,23.4-10.5,23.4-23.4s-10.5-23.4-23.4-23.4s-23.4,10.5-23.4,23.4S86.4,165,99.3,165z
	 M263.3,165c12.9,0,23.4-10.5,23.4-23.4s-10.5-23.4-23.4-23.4s-23.4,10.5-23.4,23.4S250.4,165,263.3,165z M275,176.7h-23.4
	c-6.4,0-12.3,2.6-16.5,6.8c14.8,8.1,25.2,22.7,27.5,40h24.2c6.5,0,11.7-5.2,11.7-11.7v-11.7C298.5,187.2,288,176.7,275,176.7
	L275,176.7z M181.3,176.7c22.7,0,41-18.3,41-41s-18.3-41-41-41s-41,18.3-41,41S158.7,176.7,181.3,176.7z M209.4,188.4h-3
	c-7.6,3.7-16.1,5.9-25.1,5.9s-17.4-2.2-25.1-5.9h-3c-23.3,0-42.2,18.9-42.2,42.2v10.5c0,9.7,7.9,17.6,17.6,17.6H234
	c9.7,0,17.6-7.9,17.6-17.6v-10.5C251.6,207.3,232.7,188.4,209.4,188.4L209.4,188.4z M127.6,183.5c-4.2-4.2-10.1-6.8-16.5-6.8H87.6
	c-12.9,0-23.4,10.5-23.4,23.4v11.7c0,6.5,5.2,11.7,11.7,11.7H100C102.3,206.2,112.8,191.6,127.6,183.5L127.6,183.5z"/>
<circle class="st2" cx="181.3" cy="-214" r="180"/>
<path class="st3" d="M100.6-229c12.9,0,23.4-10.5,23.4-23.4s-10.5-23.4-23.4-23.4s-23.4,10.5-23.4,23.4S87.7-229,100.6-229z
	 M264.6-229c12.9,0,23.4-10.5,23.4-23.4s-10.5-23.4-23.4-23.4s-23.4,10.5-23.4,23.4S251.7-229,264.6-229z M276.3-217.3h-23.4
	c-6.4,0-12.3,2.6-16.5,6.8c14.8,8.1,25.2,22.7,27.5,40h24.2c6.5,0,11.7-5.2,11.7-11.7v-11.7C299.8-206.8,289.3-217.3,276.3-217.3
	L276.3-217.3z M182.6-217.3c22.7,0,41-18.3,41-41c0-22.7-18.3-41-41-41s-41,18.3-41,41C141.6-235.6,160-217.3,182.6-217.3z
	 M210.7-205.6h-3c-7.6,3.7-16.1,5.9-25.1,5.9s-17.4-2.2-25.1-5.9h-3c-23.3,0-42.2,18.9-42.2,42.2v10.5c0,9.7,7.9,17.6,17.6,17.6
	h105.4c9.7,0,17.6-7.9,17.6-17.6v-10.5C252.9-186.7,234-205.6,210.7-205.6L210.7-205.6z M128.9-210.5c-4.2-4.2-10.1-6.8-16.5-6.8
	H88.9c-12.9,0-23.4,10.5-23.4,23.4v11.7c0,6.5,5.2,11.7,11.7,11.7h24.1C103.6-187.8,114.1-202.4,128.9-210.5L128.9-210.5z"/>
<circle class="st2" cx="182.6" cy="-653" r="180"/>
<path class="st4" d="M101.9-668c12.9,0,23.4-10.5,23.4-23.4c0-12.9-10.5-23.4-23.4-23.4s-23.4,10.5-23.4,23.4
	C78.5-678.5,89-668,101.9-668z M265.9-668c12.9,0,23.4-10.5,23.4-23.4c0-12.9-10.5-23.4-23.4-23.4s-23.4,10.5-23.4,23.4
	C242.5-678.5,253-668,265.9-668z M277.6-656.3h-23.4c-6.4,0-12.3,2.6-16.5,6.8c14.8,8.1,25.2,22.7,27.5,40h24.2
	c6.5,0,11.7-5.2,11.7-11.7v-11.7C301.1-645.8,290.6-656.3,277.6-656.3L277.6-656.3z M183.9-656.3c22.7,0,41-18.3,41-41
	s-18.3-41-41-41c-22.7,0-41,18.3-41,41S161.3-656.3,183.9-656.3z M212-644.6h-3c-7.6,3.7-16.1,5.9-25.1,5.9s-17.4-2.2-25.1-5.9h-3
	c-23.3,0-42.2,18.9-42.2,42.2v10.5c0,9.7,7.9,17.6,17.6,17.6h105.4c9.7,0,17.6-7.9,17.6-17.6v-10.5
	C254.2-625.7,235.3-644.6,212-644.6L212-644.6z M130.2-649.5c-4.2-4.2-10.1-6.8-16.5-6.8H90.2c-12.9,0-23.4,10.5-23.4,23.4v11.7
	c0,6.5,5.2,11.7,11.7,11.7h24.1C104.9-626.8,115.4-641.4,130.2-649.5L130.2-649.5z"/>
<rect x="-243.3" y="115.8" class="st5" width="190.3" height="183"/>
<text transform="matrix(1 0 0 1 -243.2822 127.8647)" style="font-family:'MyriadPro-Regular'; font-size:17px;">For website, using PRL </text>
<text transform="matrix(1 0 0 1 -243.2822 148.2647)" style="font-family:'MyriadPro-Regular'; font-size:17px;">complementary color</text>
<rect x="-243.3" y="-321.2" class="st5" width="190.3" height="183"/>
<text transform="matrix(1 0 0 1 -243.2822 -309.1353)" style="font-family:'MyriadPro-Regular'; font-size:17px;">For brand essence posters, </text>
<text transform="matrix(1 0 0 1 -243.2822 -288.7353)" style="font-family:'MyriadPro-Regular'; font-size:17px;">using PRL green</text>
<rect x="-259.8" y="-685.5" class="st5" width="190.3" height="183"/>
<text transform="matrix(1 0 0 1 -259.7814 -673.4395)" style="font-family:'MyriadPro-Regular'; font-size:17px;">For brand essence posters, </text>
<text transform="matrix(1 0 0 1 -259.7814 -653.0396)" style="font-family:'MyriadPro-Regular'; font-size:17px;">using lighter green color </text>
<text transform="matrix(1 0 0 1 -259.7814 -632.6395)" style="font-family:'MyriadPro-Regular'; font-size:17px;">for print</text>
</svg>
