<?xml version="1.0" encoding="utf-8"?>
<!-- Generator: Adobe Illustrator 22.1.0, SVG Export Plug-In . SVG Version: 6.00 Build 0)  -->
<svg version="1.1" id="Layer_1" xmlns="http://www.w3.org/2000/svg" xmlns:xlink="http://www.w3.org/1999/xlink" x="0px" y="0px"
	 viewBox="0 0 360 360" style="enable-background:new 0 0 360 360;" xml:space="preserve">
<style type="text/css">
	.st0{fill:#2E4D4D;}
	.st1{fill:#FFFFFF;}
</style>
<circle class="st0" cx="180" cy="180" r="180"/>
<g>
	<path class="st1" d="M88.2,123.9c8.5,19.7,22.8,39.2,42.8,47.6c2.3,1,4.9,1.7,7.6,2.3c5.3-8,11.5-14.4,18.6-19.7
		c6.2-4.5,12.6-8.1,19.3-10.9c-1.9-1.3-3.9-2.5-6-3.6c-8.3-4.4-17.4-8.2-26.2-12.3c8.3,2.2,17.7,3.1,25.7,6
		c4.9,1.8,9.5,4.3,13.7,7.3c12.7-4.3,25.9-6.4,39.1-8c-10.7-17.8-33.5-32-50.7-38.5c-18-6.7-38.3-7.6-58.3-9.6
		c-12.2-1.3-25.6-5.8-35.3-11.2c-2.2-1.2-4.6,0.8-3.8,3.3C79.4,91.9,81.9,109.2,88.2,123.9z"/>
	<path class="st1" d="M299.4,121.6c-22.5,12.2-48.4,13.7-73.7,16.7c-12.4,1.4-24.6,3.2-36.3,6.7c-2.5,0.8-5.1,1.6-7.5,2.6
		c-7.4,2.8-14.5,6.5-21.2,11.4c-6.3,4.6-11.4,10.1-15.8,16.1c-6.9,9.6-11.7,20.7-15.7,32.2c-7.2,20.9-10.5,43.1-9.9,65.2
		c0.3,9,0.4,18.3,2.6,27c0.5,1.9,1,4.4,2.5,5.8c2,1.9,5.5,0,4.7-2.8c-5.7-19.3-2.1-41.9,5.7-60.4c9-21.2,26.4-33.9,47.6-41.5
		c5.6-2,11.4-3.8,17.3-5.5c0.1,0,0.2,0,0.4,0c1.2,0,1.7,1.7,0.5,2.3c-6.9,3.1-13.8,6.3-20.3,9.7c-32,16.7-45.9,55.5-33.9,55.5
		c1,0,2.1-0.3,3.4-0.8c18.5-7.6,40.5-7.7,60.8-11.5c7.1-1.3,14.1-3.1,20.6-5.8c25.9-10.8,44.5-32,55.5-57.4
		c8.2-19,11.4-41.4,17.6-61.1c0.8-2.5-1-4.7-3.2-4.7C300.6,121.1,300,121.3,299.4,121.6z"/>
</g>
</svg>
