<?xml version="1.0" encoding="utf-8"?>
<!-- Generator: Adobe Illustrator 22.1.0, SVG Export Plug-In . SVG Version: 6.00 Build 0)  -->
<svg version="1.1" id="Layer_1" xmlns="http://www.w3.org/2000/svg" xmlns:xlink="http://www.w3.org/1999/xlink" x="0px" y="0px"
	 viewBox="0 0 360 360" style="enable-background:new 0 0 360 360;" xml:space="preserve">
<style type="text/css">
	.st0{fill:#2E4D4D;}
	.st1{fill:#FFFFFF;}
</style>
<circle class="st0" cx="180" cy="180" r="180"/>
<g>
	<rect x="137.3" y="97" transform="matrix(0.449 -0.8935 0.8935 0.449 -4.6821 228.8454)" class="st1" width="91.8" height="42.5"/>
	<rect x="99" y="205.3" class="st1" width="66.7" height="17"/>
	<path class="st1" d="M259,187.2c0-30.1-15.9-56.6-39.6-71.5l-9.3,18.3c17.2,11.4,28.6,30.9,28.6,53.2c0,35.2-28.6,63.7-63.7,63.7
		c-17.2,0-32.7-6.8-44.1-17.8h-26.5c8.1,12.4,19.5,22.6,32.9,29.2h-18.9v30.3h112.3v-30.3h-17.8C240.1,248.6,259,220,259,187.2z"/>
	
		<rect x="199.2" y="49.6" transform="matrix(0.449 -0.8935 0.8935 0.449 59.8538 216.8035)" class="st1" width="13.1" height="20.5"/>
	
		<rect x="165.1" y="168.7" transform="matrix(0.449 -0.8935 0.8935 0.449 -65.3262 247.9383)" class="st1" width="6.6" height="16.4"/>
	
		<rect x="139.3" y="158.4" transform="matrix(0.4491 -0.8935 0.8935 0.4491 -69.3499 220.6944)" class="st1" width="10" height="16.4"/>
</g>
</svg>
