<?xml version="1.0" encoding="utf-8"?>
<!-- Generator: Adobe Illustrator 22.1.0, SVG Export Plug-In . SVG Version: 6.00 Build 0)  -->
<svg version="1.1" id="Layer_1" xmlns="http://www.w3.org/2000/svg" xmlns:xlink="http://www.w3.org/1999/xlink" x="0px" y="0px"
	 viewBox="0 0 360 360" style="enable-background:new 0 0 360 360;" xml:space="preserve">
<style type="text/css">
	.st0{fill:#2E4D4D;}
	.st1{fill:#FFFFFF;}
</style>
<circle class="st0" cx="180" cy="180" r="180"/>
<g>
	<path class="st1" d="M218.2,135.1c1.2-3.9,1.9-8.1,1.9-12.4s-0.7-8.5-1.9-12.4l16.1-9.3l-8.8-15.3L209.4,95
		c-5.6-6.1-13.1-10.6-21.5-12.4V64h-17.6v18.6c-8.4,1.8-15.9,6.3-21.5,12.4l-16.1-9.3l-8.8,15.3l16.1,9.3c-1.2,3.9-1.9,8.1-1.9,12.4
		s0.7,8.5,1.9,12.4l-16.1,9.3l8.8,15.3l16.1-9.3c5.6,6.1,13.1,10.6,21.5,12.4v18.6h17.6v-18.6c8.4-1.8,15.9-6.3,21.5-12.4l16.1,9.3
		l8.8-15.3L218.2,135.1z"/>
	<rect x="199.2" y="260.5" class="st1" width="64.5" height="23.5"/>
	<path class="st1" d="M284.6,125.7L284.6,125.7c0-5-4-8.9-8.8-8.9s-8.8,4-8.8,8.8l0,0v58.7l0,0c0.2,7.1-2.4,14.3-7.8,19.6
		l-21.8,21.8l-12.5-12.5l21.8-21.8c3.5-3.5,3.8-9.2,0.4-12.5c-3.8-3.8-9.4-3.4-12.6-0.2L211,202.2c-5,5-7.7,11.6-7.7,18.6v22h56.1
		l15.3-21.4c6.4-8.9,9.8-19.7,9.8-30.7V126C284.6,125.9,284.6,125.8,284.6,125.7z"/>
	<rect x="94.3" y="260.5" class="st1" width="64.5" height="23.5"/>
	<path class="st1" d="M147,202.2l-23.5-23.5c-3.3-3.3-8.8-3.6-12.6,0.2c-3.4,3.4-3.1,9,0.4,12.5l21.8,21.8l-12.5,12.5l-21.7-21.8
		c-5.4-5.4-8-12.5-7.8-19.6l0,0v-58.7l0,0c0-4.9-4-8.8-8.8-8.8s-8.8,4-8.8,8.8v0.1c0,0.1,0,0.2,0,0.3v64.8c0,11,3.4,21.7,9.8,30.7
		l15.3,21.4h56.1v-22C154.7,213.8,151.9,207.2,147,202.2z"/>
</g>
</svg>
